<?xml version="1.0" encoding="UTF-8"?>
<svg width="162px" height="43px" viewBox="0 0 162 43" version="1.1" xmlns="http://www.w3.org/2000/svg" xmlns:xlink="http://www.w3.org/1999/xlink">
    <!-- Generator: Sketch 53.2 (72643) - https://sketchapp.com -->
    <title>Group 7</title>
    <desc>Created with Sketch.</desc>
    <g id="Page-1" stroke="none" stroke-width="1" fill="none" fill-rule="evenodd">
        <g id="Group-7" transform="translate(1.000000, 1.000000)">
            <g id="moon">
                <path d="M33.3997196,29.4458299 C29.9754894,34.4793054 24.3738658,37.5459645 18.2663578,37.5459645 C8.08222664,37.5459645 -0.17107435,29.0836698 -0.17107435,18.6479823 C-0.17107435,14.6609348 1.03670869,10.8596695 3.24722869,7.68415881 C2.99950825,7.05416582 3.1603384,6.32138031 3.67451541,5.85841324 L6.97499802,2.88664536 C7.42360215,2.48272038 8.04592728,2.36243059 8.60188983,2.55118943 C11.4834671,0.729693169 14.8046732,-0.25 18.2663578,-0.25 C28.4504889,-0.25 36.7037899,8.2122947 36.7037899,18.6479823 C36.7037899,19.9104343 36.5829829,21.1570377 36.3452156,22.3752598 C37.0269433,22.8057356 37.3071531,23.6834593 36.9725159,24.4350667 L35.1661019,28.492339 C34.8581676,29.1839707 34.1276128,29.5653816 33.3997196,29.4458299 Z" id="Combined-Shape" stroke="#000000" stroke-width="0.5" fill="#EBF1F9"></path>
                <rect id="Rectangle" fill="#B8D4E9" x="31.0701984" y="24.3526694" width="7.22881321" height="2.7992129" rx="1.39960645"></rect>
                <path d="M43.421427,34.0535657 C43.421427,23.8028622 35.3040282,15.4930252 25.2907092,15.4930252 C15.2773903,15.4930252 7.15999139,23.8028622 7.15999139,34.0535657 C9.3088172,18.5177058 36.9749496,9.99360574 43.421427,34.0535657 Z" id="Oval" fill="#B8D4E9" transform="translate(25.290709, 24.773295) rotate(131.000000) translate(-25.290709, -24.773295) "></path>
                <ellipse id="Oval-Copy-13" stroke="#000000" stroke-width="0.5" fill="#B8D4E9" cx="24.8188822" cy="13.3692707" rx="3.68003111" ry="3.76688787"></ellipse>
                <ellipse id="Oval-Copy-15" stroke="#000000" stroke-width="0.5" fill="#B8D4E9" cx="13.0321863" cy="19.2352598" rx="2.78507484" ry="2.84926912"></ellipse>
                <ellipse id="Oval-Copy-20" fill="#EBF1F9" cx="29.1330189" cy="26.3418966" rx="2.53507484" ry="2.59926912"></ellipse>
                <ellipse id="Oval-Copy-14" stroke="#000000" stroke-width="0.5" fill="#B8D4E9" cx="11.8674582" cy="29.3467171" rx="1.46249547" ry="1.49319882"></ellipse>
                <ellipse id="Oval-Copy-16" stroke="#000000" stroke-width="0.5" fill="#B8D4E9" cx="14.8012999" cy="11.9966791" rx="1" ry="1"></ellipse>
                <ellipse id="Oval-Copy-17" stroke="#000000" stroke-width="0.5" fill="#FFFFFF" cx="27.4062743" cy="16.818732" rx="1.05833032" ry="1.07879921"></ellipse>
                <ellipse id="Oval-Copy-18" stroke="#000000" stroke-width="0.5" fill="#FFFFFF" cx="15.7715373" cy="28.3330222" rx="1" ry="1"></ellipse>
                <ellipse id="Oval-Copy-19" stroke="#000000" stroke-width="0.5" fill="#FFFFFF" cx="11.5095522" cy="23.9721314" rx="1" ry="1"></ellipse>
            </g>
            <path d="M56.64,22.728 L50.984,14.608 L50.984,29 L48.8,29 L48.8,9.96 L50.088,9.96 L56.948,19.676 L63.556,9.96 L64.956,9.96 L64.956,29 L62.716,29 L62.716,14.664 L57.396,22.588 L56.64,22.728 Z M75.148,29.364 C73.1506567,29.3453332 71.648005,28.6640067 70.64,27.32 C69.631995,25.9759933 69.128,24.2493439 69.128,22.14 C69.1466668,20.0866564 69.6973279,18.39734 70.78,17.072 C71.8626721,15.74666 73.4119899,15.0746668 75.428,15.056 C77.4813436,15.056 79.0166616,15.7373265 80.034,17.1 C81.0513384,18.4626735 81.56,20.1986561 81.56,22.308 C81.5413332,24.3800104 80.9720056,26.0739934 79.852,27.39 C78.7319944,28.7060066 77.1640101,29.364 75.148,29.364 Z M79.348,22.308 C79.348,20.7586589 79.0540029,19.480005 78.466,18.472 C77.8779971,17.463995 76.884007,16.96 75.484,16.96 C74.1026598,16.96 73.08067,17.4406619 72.418,18.402 C71.75533,19.3633381 71.4146668,20.5999924 71.396,22.112 C71.396,23.6986746 71.6759972,24.9866617 72.236,25.976 C72.7960028,26.9653383 73.775993,27.46 75.176,27.46 C76.576007,27.46 77.6166633,26.993338 78.298,26.06 C78.9793367,25.126662 79.3293332,23.8760078 79.348,22.308 Z M90.352,29.364 C88.3546567,29.3453332 86.852005,28.6640067 85.844,27.32 C84.835995,25.9759933 84.332,24.2493439 84.332,22.14 C84.3506668,20.0866564 84.9013279,18.39734 85.984,17.072 C87.0666721,15.74666 88.6159899,15.0746668 90.632,15.056 C92.6853436,15.056 94.2206616,15.7373265 95.238,17.1 C96.2553384,18.4626735 96.764,20.1986561 96.764,22.308 C96.7453332,24.3800104 96.1760056,26.0739934 95.056,27.39 C93.9359944,28.7060066 92.3680101,29.364 90.352,29.364 Z M94.552,22.308 C94.552,20.7586589 94.2580029,19.480005 93.67,18.472 C93.0819971,17.463995 92.088007,16.96 90.688,16.96 C89.3066598,16.96 88.28467,17.4406619 87.622,18.402 C86.95933,19.3633381 86.6186668,20.5999924 86.6,22.112 C86.6,23.6986746 86.8799972,24.9866617 87.44,25.976 C88.0000028,26.9653383 88.979993,27.46 90.38,27.46 C91.780007,27.46 92.8206633,26.993338 93.502,26.06 C94.1833367,25.126662 94.5333332,23.8760078 94.552,22.308 Z M102.392,17.38 C102.97067,16.7266634 103.717329,16.1713356 104.632,15.714 C105.546671,15.2566644 106.405329,15.028 107.208,15.028 C108.757341,15.028 109.90533,15.4806621 110.652,16.386 C111.39867,17.2913379 111.772,18.4253265 111.772,19.788 L111.772,28.972 L109.56,28.972 L109.56,20.096 C109.56,19.1813288 109.336002,18.4253363 108.888,17.828 C108.439998,17.2306637 107.749338,16.9226668 106.816,16.904 C106.23733,16.904 105.532671,17.099998 104.702,17.492 C103.871329,17.884002 103.157336,18.4253299 102.56,19.116 L102.56,29 L100.348,29 L100.348,15.42 L101.692,15.42 L102.392,17.38 Z M124.456,22.728 L118.8,14.608 L118.8,29 L116.616,29 L116.616,9.96 L117.904,9.96 L124.764,19.676 L131.372,9.96 L132.772,9.96 L132.772,29 L130.532,29 L130.532,14.664 L125.212,22.588 L124.456,22.728 Z M139.044,25.136 C139.044,25.7146696 139.244665,26.2653307 139.646,26.788 C140.047335,27.3106693 140.695996,27.572 141.592,27.572 C142.376004,27.572 143.094663,27.376002 143.748,26.984 C144.401337,26.591998 144.961331,26.125336 145.428,25.584 L145.428,22.476 L141.844,22.476 C140.929329,22.476 140.234002,22.7419973 139.758,23.274 C139.281998,23.8060027 139.044,24.4266631 139.044,25.136 Z M137.868,16.26 C138.390669,15.9053316 139.127995,15.6160011 140.08,15.392 C141.032005,15.1679989 141.787997,15.056 142.348,15.056 C143.916008,15.056 145.189995,15.4806624 146.17,16.33 C147.150005,17.1793376 147.64,18.2853265 147.64,19.648 L147.64,29 L146.296,29 L145.708,27.628 C145.241331,28.0573355 144.63467,28.4493316 143.888,28.804 C143.14133,29.1586684 142.39467,29.336 141.648,29.336 C140.079992,29.336 138.913337,28.9393373 138.148,28.146 C137.382663,27.3526627 137,26.3493394 137,25.136 C137,23.7919933 137.452662,22.7700035 138.358,22.07 C139.263338,21.3699965 140.443993,21.02 141.9,21.02 L145.4,21.02 C145.4,19.8999944 145.222668,18.9480039 144.868,18.164 C144.513332,17.3799961 143.70134,16.988 142.432,16.988 C141.517329,16.988 140.761336,17.0906656 140.164,17.296 C139.566664,17.5013344 139.016003,17.7159989 138.512,17.94 C138.418666,17.6599986 138.316001,17.3800014 138.204,17.1 L137.868,16.26 Z M153.016,12.732 C152.586665,12.732 152.232001,12.5873348 151.952,12.298 C151.671999,12.0086652 151.532,11.6493355 151.532,11.22 C151.513333,10.8093313 151.648665,10.4593348 151.938,10.17 C152.227335,9.88066522 152.586665,9.736 153.016,9.736 C153.426669,9.736 153.785998,9.88066522 154.094,10.17 C154.402002,10.4593348 154.556,10.8093313 154.556,11.22 C154.556,11.6493355 154.402002,12.0086652 154.094,12.298 C153.785998,12.5873348 153.426669,12.732 153.016,12.732 Z M151.924,29 L151.924,15.42 L154.164,15.42 L154.164,29 L151.924,29 Z M158.588,29 L158.588,9.54 L160.8,9.232 L160.8,29 L158.588,29 Z" id="MoonMail" fill="#FFFFFF" fill-rule="nonzero"></path>
            <path d="M100.14,41 L100.14,35.56 L102.02,35.56 C102.862671,35.56 103.477331,35.8173308 103.864,36.332 C104.250669,36.8466692 104.444,37.4853295 104.444,38.248 C104.444,39.0426706 104.233335,39.6999974 103.812,40.22 C103.390665,40.7400026 102.782671,41 101.988,41 L100.14,41 Z M102.052,36.216 L100.908,36.216 L100.908,40.36 L101.988,40.36 C102.489336,40.36 102.894665,40.1813351 103.204,39.824 C103.513335,39.4666649 103.668,38.9440034 103.668,38.256 C103.668,37.6533303 103.537335,37.1626686 103.276,36.784 C103.014665,36.4053314 102.606669,36.216 102.052,36.216 Z M107.224,41 L107.224,35.56 L110.288,35.56 C110.309333,35.6613338 110.326667,35.7599995 110.34,35.856 C110.353333,35.9520005 110.370667,36.0506662 110.392,36.152 L107.992,36.152 L107.992,37.936 L109.52,37.936 C109.536,38.0373338 109.552,38.1373328 109.568,38.236 C109.584,38.3346672 109.602667,38.4319995 109.624,38.528 L107.992,38.528 L107.992,40.4 L110.576,40.4 L110.68,41 L107.224,41 Z M114.524,41 L112.436,35.68 L113.188,35.56 L114.884,39.976 L116.516,35.56 L117.276,35.56 L115.228,41 L114.524,41 Z M119.576,41 L119.576,35.56 L122.64,35.56 C122.661333,35.6613338 122.678667,35.7599995 122.692,35.856 C122.705333,35.9520005 122.722667,36.0506662 122.744,36.152 L120.344,36.152 L120.344,37.936 L121.872,37.936 C121.888,38.0373338 121.904,38.1373328 121.92,38.236 C121.936,38.3346672 121.954667,38.4319995 121.976,38.528 L120.344,38.528 L120.344,40.4 L122.928,40.4 L123.032,41 L119.576,41 Z M128.812,41 L125.492,41 L125.492,35.56 L126.26,35.56 L126.26,40.4 L128.716,40.4 L128.812,41 Z M130.96,38.304 C130.96,37.4879959 131.169331,36.809336 131.588,36.268 C132.006669,35.726664 132.610663,35.4480001 133.4,35.432 C134.242671,35.432 134.858665,35.7106639 135.248,36.268 C135.637335,36.8253361 135.832,37.4853295 135.832,38.248 C135.832,39.0426706 135.621335,39.7159972 135.2,40.268 C134.778665,40.8200028 134.170671,41.1013333 133.376,41.112 C132.538662,41.112 131.926669,40.8346694 131.54,40.28 C131.153331,39.7253306 130.96,39.0666705 130.96,38.304 Z M131.76,38.296 C131.76,38.904003 131.889332,39.4159979 132.148,39.832 C132.406668,40.2480021 132.813331,40.456 133.368,40.456 C133.874669,40.456 134.275999,40.2613353 134.572,39.872 C134.868001,39.4826647 135.016,38.9413368 135.016,38.248 C135.016,37.6453303 134.888001,37.1360021 134.632,36.72 C134.375999,36.3039979 133.970669,36.096 133.416,36.096 C132.919998,36.096 132.520002,36.299998 132.216,36.708 C131.911998,37.116002 131.76,37.6453301 131.76,38.296 Z M138.596,41 L138.596,35.56 L140.156,35.56 C140.732003,35.56 141.218665,35.6906654 141.616,35.952 C142.013335,36.2133346 142.212,36.647997 142.212,37.256 C142.206667,37.8586697 141.992002,38.2999986 141.568,38.58 C141.143998,38.8600014 140.64667,39 140.076,39 L139.364,39 L139.364,41 L138.596,41 Z M140.148,36.208 L139.364,36.208 L139.364,38.36 L140.108,38.36 C140.476002,38.36 140.781332,38.2760008 141.024,38.108 C141.266668,37.9399992 141.396,37.6666686 141.412,37.288 C141.412,36.8773313 141.298668,36.5946674 141.072,36.44 C140.845332,36.2853326 140.537335,36.208 140.148,36.208 Z M144.832,41 L144.832,35.56 L147.896,35.56 C147.917333,35.6613338 147.934667,35.7599995 147.948,35.856 C147.961333,35.9520005 147.978667,36.0506662 148,36.152 L145.6,36.152 L145.6,37.936 L147.128,37.936 C147.144,38.0373338 147.16,38.1373328 147.176,38.236 C147.192,38.3346672 147.210667,38.4319995 147.232,38.528 L145.6,38.528 L145.6,40.4 L148.184,40.4 L148.288,41 L144.832,41 Z M152.3,36.208 L151.516,36.208 L151.516,38.2 L152.26,38.2 C152.617335,38.2 152.922665,38.1266674 153.176,37.98 C153.429335,37.8333326 153.558667,37.5760018 153.564,37.208 C153.564,36.8239981 153.448001,36.561334 153.216,36.42 C152.983999,36.278666 152.678669,36.208 152.3,36.208 Z M153.948,41 L152.732,38.8 C152.646666,38.8053334 152.562667,38.8106666 152.48,38.816 C152.397333,38.8213334 152.313334,38.824 152.228,38.824 L151.516,38.824 L151.516,41 L150.748,41 L150.748,35.56 L152.308,35.56 C152.884003,35.56 153.370665,35.6866654 153.768,35.94 C154.165335,36.1933346 154.364,36.6053305 154.364,37.176 C154.358667,37.5333351 154.268001,37.8306655 154.092,38.068 C153.915999,38.3053345 153.689335,38.4826661 153.412,38.6 L154.78,41 L153.948,41 Z M157.184,40.096 C157.333334,40.170667 157.533332,40.2466663 157.784,40.324 C158.034668,40.4013337 158.282665,40.44 158.528,40.44 C158.917335,40.44 159.213332,40.3680007 159.416,40.224 C159.618668,40.0799993 159.72,39.8906678 159.72,39.656 C159.72,39.1173306 159.252005,38.718668 158.316,38.46 C157.379995,38.201332 156.912,37.6613374 156.912,36.84 C156.912,36.4453314 157.070665,36.1120014 157.388,35.84 C157.705335,35.5679986 158.141331,35.432 158.696,35.432 C158.968001,35.432 159.230665,35.469333 159.484,35.544 C159.737335,35.618667 159.954666,35.7013329 160.136,35.792 C160.098666,35.8933338 160.056,35.9946662 160.008,36.096 C159.96,36.1973338 159.917334,36.2986662 159.88,36.4 C159.741333,36.3306663 159.582668,36.2653336 159.404,36.204 C159.225332,36.1426664 159.008001,36.112 158.752,36.112 C158.447998,36.112 158.193334,36.1706661 157.988,36.288 C157.782666,36.4053339 157.68,36.5839988 157.68,36.824 C157.68,37.3733361 158.149329,37.781332 159.088,38.048 C160.026671,38.314668 160.496,38.8453294 160.496,39.64 C160.496,40.0666688 160.326668,40.417332 159.988,40.692 C159.649332,40.966668 159.165336,41.104 158.536,41.104 C158.306666,41.104 158.021335,41.0613338 157.68,40.976 C157.338665,40.8906662 157.114667,40.8000005 157.008,40.704 C157.034667,40.6026662 157.062667,40.5013338 157.092,40.4 C157.121333,40.2986662 157.152,40.1973338 157.184,40.096 Z" id="FORDEVELOPERS" fill="#FFFFFF" fill-rule="nonzero"></path>
        </g>
    </g>
</svg>